<?xml version="1.0" encoding="UTF-8"?>
<svg version="1.1" xmlns="http://www.w3.org/2000/svg" width="1000" height="1000">
<path d="M0 0 C329.67 0 659.34 0 999 0 C999 329.67 999 659.34 999 999 C669.33 999 339.66 999 0 999 C0 669.33 0 339.66 0 0 Z " fill="#EA5A00" transform="translate(0,1)"/>
<path d="M0 0 C4.06960538 0.72671525 5.54955187 1.78215325 8.5 4.625 C9.58325195 7.16992187 9.58325195 7.16992187 10.23828125 10.09375 C10.49673828 11.20363281 10.75519531 12.31351563 11.02148438 13.45703125 C11.28251953 14.66746094 11.54355469 15.87789062 11.8125 17.125 C12.10318359 18.39730469 12.39386719 19.66960937 12.69335938 20.98046875 C13.48752039 24.46083285 14.25682951 27.9462294 15.01959229 31.43359375 C15.83098129 35.13478937 16.65680806 38.8327698 17.48046875 42.53125 C18.49774911 47.10448524 19.51241925 51.67825868 20.51879883 56.25390625 C22.57178369 65.57194969 24.7272622 74.85757585 27 84.125 C29.85996695 95.78744605 32.49753377 107.48967957 35.07763672 119.21630859 C37.13065331 128.541975 39.23358523 137.84829512 41.5 147.125 C44.16769757 158.04488529 46.60232222 169.01068221 49.02050781 179.98779297 C51.09325847 189.38933713 53.21515163 198.77218662 55.5 208.125 C58.16767797 219.04489059 60.60232208 230.01068156 63.02050781 240.98779297 C65.09325847 250.38933713 67.21515163 259.77218662 69.5 269.125 C72.16767797 280.04489059 74.60232208 291.01068156 77.02050781 301.98779297 C79.0932595 311.3893418 81.21533184 320.77213971 83.5 330.125 C86.34747338 341.78966689 88.94236964 353.50571258 91.53027344 365.22998047 C93.79020621 375.4636026 96.10438027 385.68290116 98.48120117 395.89013672 C99.58805691 400.64919319 100.68031162 405.4099451 101.72265625 410.18359375 C101.90860352 411.0348584 102.09455078 411.88612305 102.28613281 412.76318359 C102.626141 414.3291768 102.96295788 415.89586786 103.29589844 417.46337891 C103.80311382 420.82841058 103.80311382 420.82841058 105.5 423.625 C105.86125977 423.02776123 106.22251953 422.43052246 106.59472656 421.81518555 C112.77923005 411.59981568 118.96886681 401.39083301 125.375 391.3125 C130.08908098 383.89546744 134.71547355 376.42762513 139.3125 368.9375 C144.50529061 360.47684318 149.72806086 352.03657277 155 343.625 C160.20688176 335.31605864 165.3689429 326.98097367 170.5 318.625 C200.40243057 269.95697093 200.40243057 269.95697093 204.5 266.625 C205.49 266.625 206.48 266.625 207.5 266.625 C207.71396108 272.2886757 207.12366784 276.96211387 205.375 282.375 C204.91398587 283.86846593 204.45305178 285.36195657 203.9921875 286.85546875 C203.74823242 287.63196777 203.50427734 288.4084668 203.25292969 289.20849609 C202.22384531 292.51130969 201.24122806 295.82734271 200.25634766 299.14355469 C198.02741129 306.64049364 195.73486168 314.11564195 193.38574219 321.57568359 C191.79525815 326.64143788 190.2658524 331.72396944 188.75 336.8125 C186.21078916 345.33296305 183.58274304 353.82440754 180.9375 362.3125 C178.28188676 370.83570166 175.65871294 379.3637578 173.16943359 387.93701172 C171.48483901 393.7258913 169.68157358 399.47268591 167.86987305 405.22265625 C166.48875279 409.63698121 165.164139 414.06720656 163.84375 418.5 C159.77720227 432.10139751 155.57351083 445.66060023 151.38354492 459.22436523 C147.93516714 470.39088468 144.4895951 481.5554156 141.22302246 492.7766571 C139.88833219 497.34781678 138.49099841 501.89607496 137.05859375 506.4375 C134.40267556 514.8650873 131.89941544 523.33572993 129.39544678 531.80947876 C123.14916686 552.92311323 116.77636591 573.99837879 110.35983276 595.06079102 C109.3732668 598.29945466 108.38875032 601.53872995 107.40603638 604.77856445 C106.23355408 608.64341478 105.05661964 612.50688265 103.87639427 616.36937523 C103.43976024 617.80068698 103.00456246 619.23243782 102.57094765 620.66466713 C95.89778309 642.69314461 95.89778309 642.69314461 91.5 645.625 C88.0625 646.0625 88.0625 646.0625 84.5 645.625 C79.79841494 641.34693544 78.92158974 635.76513991 77.50390625 629.8203125 C77.23400375 628.73338608 76.96410126 627.64645966 76.6860199 626.52659607 C75.7986126 622.9374334 74.9303154 619.34394562 74.0625 615.75 C73.44683472 613.24059014 72.83028555 610.73139698 72.21289062 608.22241211 C66.81805145 586.22422417 61.60257921 564.18201065 56.4375 542.12890625 C54.41633092 533.50189313 52.3782322 524.87911146 50.31640625 516.26171875 C50.07901733 515.26628555 49.84162842 514.27085236 49.5970459 513.24525452 C47.96245129 506.43206793 46.22558879 499.64941174 44.4375 492.875 C41.6175553 482.1633149 39.0130389 471.41246519 36.5 460.625 C36.23574219 459.49143066 35.97148438 458.35786133 35.69921875 457.18994141 C35.12018632 454.70558823 34.5412503 452.22121258 33.96240234 449.73681641 C29.38756381 430.10447895 24.81549295 410.4843798 19.67724609 390.99072266 C17.11638425 381.24071371 14.788867 371.44187166 12.5 361.625 C11.92449811 359.16275599 11.348976 356.7005167 10.7734375 354.23828125 C9.56315432 349.05774513 8.35524895 343.87665867 7.1484375 338.6953125 C5.27838094 330.6688498 3.39216501 322.64627524 1.5 314.625 C1.24476563 315.76654541 1.24476563 315.76654541 0.984375 316.93115234 C-2.42600849 332.16223339 -5.89599857 347.37602292 -9.5 362.5625 C-12.26554997 374.21973834 -14.9007108 385.89822854 -17.42825317 397.60925293 C-19.79913475 408.58226775 -22.33905407 419.50847374 -24.94186401 430.42855835 C-27.81882751 442.5191743 -30.4751786 454.64924392 -33.06710815 466.80380249 C-35.48282878 478.11551947 -38.08603537 489.36375056 -40.85571289 500.5949707 C-43.44629696 511.19108245 -45.73544647 521.84291427 -48.00823975 532.51046753 C-50.48703974 544.12948806 -53.15430805 555.68069878 -55.99389648 567.21777344 C-58.2832899 576.57436786 -60.32085547 585.97197234 -62.3034668 595.39770508 C-63.89517601 602.92200457 -65.61093168 610.40442583 -67.4375 617.875 C-69.72648644 627.24121225 -71.84025699 636.63833716 -73.875 646.0625 C-76.45202225 657.99481555 -79.18232956 669.88314961 -82.00769043 681.75897217 C-84.33263795 691.54161012 -86.56248347 701.33935261 -88.68756104 711.1673584 C-89.67669217 715.73527555 -90.67929461 720.30026143 -91.6796875 724.86572266 C-92.22605552 727.36958421 -92.76773282 729.87447398 -93.3046875 732.38037109 C-94.05929938 735.88305902 -94.83882859 739.37928088 -95.625 742.875 C-95.84236816 743.91084229 -96.05973633 744.94668457 -96.28369141 746.01391602 C-97.28320529 750.35977286 -97.88539684 752.97379038 -100.9921875 756.265625 C-104.17429929 757.99050803 -105.92872568 758.22021239 -109.5 757.625 C-114.28748091 754.62559724 -116.05344475 750.94381029 -118.0390625 745.84765625 C-118.35723434 745.06663544 -118.67540619 744.28561462 -119.0032196 743.48092651 C-119.69315291 741.78279053 -120.37653708 740.08198227 -121.05410767 738.37887573 C-122.52592949 734.6798806 -124.02932925 730.99396343 -125.5302887 727.30671692 C-126.32170744 725.36126087 -127.11142302 723.41511119 -127.89952087 721.4683075 C-131.71518283 712.04997876 -135.66351031 702.69004995 -139.63497925 693.33657837 C-146.67506415 676.75109807 -153.64046008 660.13505223 -160.5625 643.5 C-160.97939087 642.49825745 -161.39628174 641.49651489 -161.82580566 640.4644165 C-163.49695136 636.44879785 -165.16806016 632.43316386 -166.83905029 628.41748047 C-171.06944741 618.25298823 -175.31213889 608.09365924 -179.5625 597.9375 C-179.92768738 597.06485504 -180.29287476 596.19221008 -180.66912842 595.29312134 C-186.87496881 580.46840071 -193.12457125 565.66232936 -199.38305664 550.85977173 C-204.97633882 537.62872161 -210.54001518 524.38576353 -216.0625 511.125 C-216.53978043 509.97923996 -216.53978043 509.97923996 -217.02670288 508.81033325 C-222.45537786 495.77379084 -222.45537786 495.77379084 -224.5 490.625 C-226.92688044 497.52509498 -228.7310827 504.43922342 -230.375 511.5625 C-232.0745943 518.79285304 -233.81373015 525.98896393 -235.875 533.125 C-238.34953163 541.72640634 -240.41634996 550.42288084 -242.5 559.125 C-244.7029205 568.32416474 -246.93610102 577.49387318 -249.56640625 586.58203125 C-251.78093714 594.36955378 -253.61480089 602.25294963 -255.5 610.125 C-257.70301179 619.3241449 -259.93609966 628.49386849 -262.56640625 637.58203125 C-264.98806976 646.09794729 -266.96837461 654.72886037 -269.02975464 663.33728027 C-271.08061001 671.89247392 -273.19533774 680.40979192 -275.63671875 688.86328125 C-277.63903151 695.89807341 -279.30624974 703.01070749 -281 710.125 C-282.85435959 717.91390305 -284.71576275 725.68204586 -286.9375 733.375 C-289.39464669 741.8920017 -291.43620503 750.50649518 -293.5 759.125 C-295.70296617 768.32415482 -297.93610034 777.49387084 -300.56640625 786.58203125 C-302.78093714 794.36955378 -304.61480089 802.25294963 -306.5 810.125 C-308.70301179 819.3241449 -310.93609966 828.49386849 -313.56640625 837.58203125 C-315.78094217 845.36957146 -317.61454942 853.25299655 -319.5 861.125 C-322.27230761 872.69540533 -325.20472339 884.19138874 -328.5 895.625 C-329.10821242 897.83222249 -329.71291501 900.04041829 -330.3125 902.25 C-330.54582031 903.10851562 -330.77914062 903.96703125 -331.01953125 904.8515625 C-331.17808594 905.43679688 -331.33664062 906.02203125 -331.5 906.625 C-334.41696199 905.32618388 -336.2864651 904.03709595 -338.34765625 901.60546875 C-338.86473145 901.00202637 -339.38180664 900.39858398 -339.91455078 899.77685547 C-340.45837402 899.12861816 -341.00219727 898.48038086 -341.5625 897.8125 C-342.13468262 897.14105957 -342.70686523 896.46961914 -343.29638672 895.77783203 C-345.03722891 893.73213745 -346.76909339 891.67910286 -348.5 889.625 C-349.46950368 888.48260728 -350.43952 887.34064933 -351.41015625 886.19921875 C-353.66539168 883.54394512 -355.91266049 880.88206844 -358.15722656 878.21777344 C-360.43421431 875.51685198 -362.7174219 872.82119693 -365 870.125 C-367.73981315 866.88801005 -370.47895552 863.65046464 -373.21484375 860.41015625 C-385.52396719 845.76945403 -385.52396719 845.76945403 -398.1875 831.4375 C-401.1791816 828.14557795 -404.02524423 824.77908693 -406.8125 821.3125 C-410.70255931 816.49914563 -414.82871834 811.9773855 -419.05566406 807.46386719 C-422.97878593 803.25106859 -426.61896414 798.86104648 -430.22265625 794.37109375 C-432.7182639 791.36181042 -435.33763481 788.48559714 -438 785.625 C-441.45161936 781.91638312 -444.76522148 778.13994105 -447.9375 774.1875 C-451.78110057 769.40878372 -455.86960164 764.93342313 -460.05834961 760.46118164 C-463.9599667 756.27170474 -467.57324797 751.90327064 -471.15625 747.4375 C-473.83208171 744.22650195 -476.64358276 741.17470863 -479.5 738.125 C-483.93832674 733.38633536 -488.0914225 728.50380674 -492.15625 723.4375 C-494.83218964 720.22637244 -497.64503799 717.17620705 -500.5 714.125 C-502.50592215 711.96374353 -504.5056271 709.79691747 -506.5 707.625 C-506.96599609 707.1187207 -507.43199219 706.61244141 -507.91210938 706.09082031 C-509.21111085 704.6615438 -510.481286 703.20622833 -511.75 701.75 C-512.47703125 700.92757812 -513.2040625 700.10515625 -513.953125 699.2578125 C-515.93136247 695.89081236 -515.78291857 693.46326191 -515.5 689.625 C-509.36952507 690.02999251 -505.74750284 691.97796398 -500.75 695.4375 C-499.23909722 696.44913641 -497.72734752 697.45950881 -496.21484375 698.46875 C-495.43737793 698.99210938 -494.65991211 699.51546875 -493.85888672 700.0546875 C-490.05492525 702.58698725 -486.18400586 705.01025285 -482.3125 707.4375 C-480.71064969 708.44615766 -479.10909279 709.45528141 -477.5078125 710.46484375 C-476.28433105 711.23610596 -476.28433105 711.23610596 -475.03613281 712.02294922 C-470.57980604 714.83796811 -466.13360527 717.6688742 -461.6875 720.5 C-460.3094519 721.37748901 -460.3094519 721.37748901 -458.90356445 722.27270508 C-457.03510329 723.4626447 -455.16669525 724.65266777 -453.29833984 725.84277344 C-448.69976238 728.77154813 -444.09981988 731.69817714 -439.5 734.625 C-437.68098287 735.78254154 -435.86197247 736.94009365 -434.04296875 738.09765625 C-433.13724121 738.67402832 -432.23151367 739.25040039 -431.29833984 739.84423828 C-419.3655599 747.43782552 -407.43277995 755.03141276 -395.5 762.625 C-395.14613724 760.99135498 -395.14613724 760.99135498 -394.78512573 759.32470703 C-392.55865488 749.12856592 -390.14673511 738.99558723 -387.55655289 728.88607788 C-386.92179896 726.408211 -386.29070053 723.92943504 -385.66036987 721.45043945 C-384.09412524 715.29346938 -382.52224255 709.13794233 -380.95007324 702.98248291 C-379.61641543 697.7600998 -378.285265 692.5370889 -376.95714951 687.31329346 C-376.34926534 684.92619481 -375.73799937 682.53998197 -375.12649536 680.15380859 C-372.84738408 671.21693209 -370.71075476 662.2556583 -368.65966797 653.26367188 C-365.51950783 639.52334468 -362.09543972 625.8607231 -358.62749481 612.1999836 C-357.76319555 608.79222953 -356.90250755 605.38356352 -356.04150391 601.97497559 C-353.68056035 592.63091416 -351.31432527 583.2881947 -348.94796753 573.94550323 C-346.77292718 565.35791965 -344.59912309 556.77002757 -342.42956352 548.18105745 C-341.58043443 544.82000939 -340.73025278 541.45923621 -339.8772583 538.09916687 C-336.35477993 524.21822989 -332.93633625 510.32607509 -329.7556839 496.36271667 C-327.11499123 484.82810893 -324.21979499 473.36027915 -321.30793762 461.89161682 C-320.31184428 457.96807561 -319.31921717 454.04367112 -318.32751465 450.11901855 C-316.04399083 441.08457423 -313.75515584 432.05147753 -311.46619415 423.01840973 C-309.3620561 414.71448304 -307.25916388 406.41024548 -305.16053057 398.10492563 C-304.02746238 393.62155366 -302.89031655 389.13922848 -301.75231934 384.65710449 C-298.60100996 372.21065393 -295.56884109 359.74720348 -292.71263313 347.22968674 C-289.99923115 335.36288665 -287.07890803 323.54910862 -284.1484375 311.734375 C-283.56114194 309.36129353 -282.97395563 306.98818502 -282.38687134 304.61505127 C-281.16976159 299.69729239 -279.95114925 294.77990905 -278.73144531 289.86279297 C-277.17737315 283.5970533 -275.62748576 277.33028694 -274.07874107 271.06322861 C-272.87256479 266.18461038 -271.66401954 261.30658131 -270.45479202 256.42871857 C-269.88236256 254.11829662 -269.31068611 251.80768795 -268.73981857 249.49687958 C-267.2299823 243.38784273 -265.70731503 237.28248249 -264.15172577 231.18492126 C-263.73557457 229.5503161 -263.3231682 227.9147499 -262.91565704 226.27796936 C-262.41551117 224.27943007 -261.89353543 222.28638782 -261.36962891 220.29394531 C-260.9647374 218.72595184 -260.9647374 218.72595184 -260.55166626 217.12628174 C-259.33284024 214.22742744 -258.18955752 213.19574442 -255.5 211.625 C-253.5 211.19140625 -253.5 211.19140625 -251.5 211.1875 C-250.84 211.16816406 -250.18 211.14882813 -249.5 211.12890625 C-246.52009068 211.86806345 -245.4899935 213.27889997 -243.5 215.625 C-242.0788253 218.27064515 -240.96436484 221.02221122 -239.83984375 223.8046875 C-239.32689758 225.03931732 -239.32689758 225.03931732 -238.80358887 226.29888916 C-237.67210634 229.02879209 -236.55486639 231.76429235 -235.4375 234.5 C-234.63965994 236.43250348 -233.84089614 238.36462583 -233.04125977 240.29638672 C-231.36437579 244.35221925 -229.69342165 248.41041981 -228.02734375 252.47070312 C-225.59132469 258.40674419 -223.14140396 264.33695881 -220.6875 270.265625 C-217.50424812 277.95893641 -214.32613044 285.65434166 -211.15234375 293.3515625 C-206.782212 303.94852213 -202.39362747 314.53776473 -198 325.125 C-192.0290207 339.51562024 -186.07162278 353.91179772 -180.125 368.3125 C-179.53286713 369.74642593 -179.53286713 369.74642593 -178.92877197 371.20932007 C-175.71592901 378.98996625 -172.5038249 386.77091741 -169.29174805 394.55187988 C-158.22054607 421.37472246 -158.22054607 421.37472246 -147.125 448.1875 C-146.77085022 449.04211823 -146.41670044 449.89673645 -146.05181885 450.7772522 C-144.3046697 454.99223827 -142.55572383 459.20646676 -140.80371094 463.41943359 C-137.4999417 471.3670626 -134.21050412 479.31988169 -130.96261597 487.2905426 C-129.39910765 491.12556864 -127.8288762 494.95782527 -126.25811768 498.78988647 C-125.50795752 500.62544533 -124.76112189 502.46236669 -124.01776123 504.3006897 C-122.99148715 506.83805345 -121.95404774 509.37057535 -120.9140625 511.90234375 C-120.61171692 512.65855011 -120.30937134 513.41475647 -119.99786377 514.19387817 C-118.51805325 517.76488391 -117.79480062 519.42846625 -114.5 521.625 C-110.92143083 521.85341931 -107.93968692 521.55364118 -104.5 520.625 C-101.57139643 506.38273842 -98.81416337 492.11305914 -96.1875 477.8125 C-95.96799179 476.61749374 -95.96799179 476.61749374 -95.74404907 475.39834595 C-94.01104186 465.95315687 -92.29595233 456.50476873 -90.58984375 447.0546875 C-89.93540433 443.43219957 -89.28046168 439.8098031 -88.625 436.1875 C-88.46011078 435.27625366 -88.29522156 434.36500732 -88.12533569 433.42614746 C-85.1440904 416.9737354 -82.01941516 400.55072126 -78.8581543 384.13208008 C-75.48939068 366.62840759 -72.21839296 349.10748074 -68.97433472 331.58032227 C-67.82295749 325.3611228 -66.66508532 319.14315756 -65.50390625 312.92578125 C-61.47813973 291.3670025 -61.47813973 291.3670025 -57.53515625 269.79296875 C-57.29181801 268.4465757 -57.29181801 268.4465757 -57.04356384 267.07298279 C-56.71481702 265.25346349 -56.38609699 263.43393935 -56.05740356 261.6144104 C-55.89408539 260.71040497 -55.73076721 259.80639954 -55.5625 258.875 C-55.39877899 257.96865814 -55.23505798 257.06231628 -55.06637573 256.12850952 C-52.31567913 240.92074754 -49.428294 225.74183072 -46.49591064 210.56817627 C-43.31593386 194.09527426 -40.31458728 177.59452663 -37.37240601 161.07766724 C-34.83302143 146.83792819 -32.18114947 132.62705381 -29.375 118.4375 C-26.99183437 106.38557794 -24.68819941 94.32623575 -22.54296875 82.22955322 C-21.69311046 77.44202645 -20.83315276 72.65629792 -19.97473145 67.87030029 C-19.07780736 62.86563342 -18.18748465 57.85986174 -17.30273438 52.85302734 C-16.22921458 46.78888505 -15.13454629 40.72882234 -14.02850342 34.67053223 C-13.59562102 32.28056213 -13.16946315 29.88936351 -12.75030518 27.49694824 C-12.16099232 24.13904795 -11.54804071 20.78625043 -10.9296875 17.43359375 C-10.75898743 16.4291069 -10.58828735 15.42462006 -10.41241455 14.38969421 C-9.13767837 7.6660141 -7.57452211 1.35259323 0 0 Z " fill="#FDFDFC" transform="translate(653.5,47.375)"/>
<path d="M0 0 C6.13047493 0.40499251 9.75249716 2.35296398 14.75 5.8125 C16.26090278 6.82413641 17.77265248 7.83450881 19.28515625 8.84375 C20.06262207 9.36710938 20.84008789 9.89046875 21.64111328 10.4296875 C25.44507475 12.96198725 29.31599414 15.38525285 33.1875 17.8125 C34.78935031 18.82115766 36.39090721 19.83028141 37.9921875 20.83984375 C38.8078418 21.35401855 39.62349609 21.86819336 40.46386719 22.39794922 C44.92019396 25.21296811 49.36639473 28.0438742 53.8125 30.875 C54.73119873 31.45999268 55.64989746 32.04498535 56.59643555 32.64770508 C58.46489671 33.8376447 60.33330475 35.02766777 62.20166016 36.21777344 C66.80023762 39.14654813 71.40018012 42.07317714 76 45 C77.81901713 46.15754154 79.63802753 47.31509365 81.45703125 48.47265625 C82.81562256 49.33721436 82.81562256 49.33721436 84.20166016 50.21923828 C96.1344401 57.81282552 108.06722005 65.40641276 120 73 C120.33 72.34 120.66 71.68 121 71 C121.25584618 71.81546295 121.25584618 71.81546295 121.51686096 72.6473999 C123.34323113 78.31353988 125.51896869 83.71664752 127.96484375 89.140625 C128.34983536 90.00367249 128.73482697 90.86671997 129.13148499 91.75592041 C130.39629398 94.58902454 131.66692829 97.41947623 132.9375 100.25 C133.83573368 102.25956579 134.73351187 104.26933522 135.63085938 106.27929688 C137.4941694 110.45196216 139.35942996 114.62374716 141.22607422 118.79492188 C145.50240561 128.35511581 149.7501217 137.9280259 154 147.5 C155.64028365 151.19416212 157.28086735 154.88819068 158.921875 158.58203125 C159.33033157 159.50146011 159.73878815 160.42088898 160.15962219 161.36817932 C162.85355511 167.42901147 165.5560813 173.4859568 168.26330566 179.54086304 C170.14158976 183.74255828 172.01719335 187.94544752 173.89257812 192.1484375 C174.79292416 194.16417626 175.69460345 196.17932008 176.59765625 198.19384766 C177.84445684 200.97542254 179.08677566 203.7589578 180.328125 206.54296875 C180.70205383 207.37398605 181.07598267 208.20500336 181.46124268 209.061203 C184 214.77226785 184 214.77226785 184 217 C181.08303801 215.70118388 179.2135349 214.41209595 177.15234375 211.98046875 C176.63526855 211.37702637 176.11819336 210.77358398 175.58544922 210.15185547 C175.04162598 209.50361816 174.49780273 208.85538086 173.9375 208.1875 C173.36531738 207.51605957 172.79313477 206.84461914 172.20361328 206.15283203 C170.46277109 204.10713745 168.73090661 202.05410286 167 200 C166.03049632 198.85760728 165.06048 197.71564933 164.08984375 196.57421875 C161.83460832 193.91894512 159.58733951 191.25706844 157.34277344 188.59277344 C155.06578569 185.89185198 152.7825781 183.19619693 150.5 180.5 C147.76018685 177.26301005 145.02104448 174.02546464 142.28515625 170.78515625 C129.97603281 156.14445403 129.97603281 156.14445403 117.3125 141.8125 C114.3208184 138.52057795 111.47475577 135.15408693 108.6875 131.6875 C104.79744069 126.87414563 100.67128166 122.3523855 96.44433594 117.83886719 C92.52121407 113.62606859 88.88103586 109.23604648 85.27734375 104.74609375 C82.7817361 101.73681042 80.16236519 98.86059714 77.5 96 C74.04838064 92.29138312 70.73477852 88.51494105 67.5625 84.5625 C63.71889943 79.78378372 59.63039836 75.30842313 55.44165039 70.83618164 C51.5400333 66.64670474 47.92675203 62.27827064 44.34375 57.8125 C41.66791829 54.60150195 38.85641724 51.54970863 36 48.5 C31.56167326 43.76133536 27.4085775 38.87880674 23.34375 33.8125 C20.66781036 30.60137244 17.85496201 27.55120705 15 24.5 C12.99407785 22.33874353 10.9943729 20.17191747 9 18 C8.53400391 17.4937207 8.06800781 16.98744141 7.58789062 16.46582031 C6.28888915 15.0365438 5.018714 13.58122833 3.75 12.125 C3.02296875 11.30257812 2.2959375 10.48015625 1.546875 9.6328125 C-0.43136247 6.26581236 -0.28291857 3.83826191 0 0 Z " fill="#F8F7F6" transform="translate(138,737)"/>
</svg>
