<?xml version="1.0" encoding="UTF-8"?>
<!DOCTYPE svg PUBLIC "-//W3C//DTD SVG 1.1//EN" "http://www.w3.org/Graphics/SVG/1.1/DTD/svg11.dtd">
<svg xmlns="http://www.w3.org/2000/svg" version="1.1" width="2083px" height="495px" style="shape-rendering:geometricPrecision; text-rendering:geometricPrecision; image-rendering:optimizeQuality; fill-rule:evenodd; clip-rule:evenodd" xmlns:xlink="http://www.w3.org/1999/xlink">
<g><path style="opacity:0.977" fill="#fefffe" d="M 35.5,23.5 C 50.5037,23.3334 65.5037,23.5001 80.5,24C 86.3582,24.0632 90.8582,26.5632 94,31.5C 126,98.1667 158,164.833 190,231.5C 193.03,234.36 195.697,234.027 198,230.5C 230,163.833 262,97.1667 294,30.5C 295.938,27.8941 298.438,26.0608 301.5,25C 318.121,23.4085 334.788,23.0751 351.5,24C 360,25.8333 365.167,31 367,39.5C 367.667,172.167 367.667,304.833 367,437.5C 366.184,442.631 363.351,446.131 358.5,448C 346.167,448.667 333.833,448.667 321.5,448C 316.374,445.934 313.541,442.1 313,436.5C 312.667,326.5 312.333,216.5 312,106.5C 285.061,161.378 258.394,216.378 232,271.5C 229.112,276.721 224.945,280.555 219.5,283C 210.892,284.106 202.225,284.606 193.5,284.5C 186.167,284.333 178.833,284.167 171.5,284C 164.638,282.474 159.472,278.641 156,272.5C 128.728,216.956 101.728,161.289 75,105.5C 74.6667,216.5 74.3333,327.5 74,438.5C 72.9319,443.235 70.0986,446.402 65.5,448C 53.5,448.667 41.5,448.667 29.5,448C 26.4605,446.969 23.9605,445.135 22,442.5C 20.3368,307.247 20.0035,171.914 21,36.5C 23.524,29.4705 28.3573,25.1372 35.5,23.5 Z"/></g>
<g><path style="opacity:0.98" fill="#fefffe" d="M 730.5,31.5 C 749.167,31.5 767.833,31.5 786.5,31.5C 786.5,113.5 786.5,195.5 786.5,277.5C 811.836,277.667 837.169,277.5 862.5,277C 887.833,236.667 913.167,196.333 938.5,156C 959.175,155.167 979.841,155.334 1000.5,156.5C 973.364,199.467 946.031,242.301 918.5,285C 965.463,301.629 993.297,334.462 1002,383.5C 1003.42,405.131 1003.92,426.798 1003.5,448.5C 984.833,448.5 966.167,448.5 947.5,448.5C 947.667,432.497 947.5,416.497 947,400.5C 942.883,360.718 921.383,336.218 882.5,327C 850.529,325.561 818.529,325.061 786.5,325.5C 786.5,366.5 786.5,407.5 786.5,448.5C 767.833,448.5 749.167,448.5 730.5,448.5C 730.5,309.5 730.5,170.5 730.5,31.5 Z"/></g>
<g><path style="opacity:0.981" fill="#fefffe" d="M 1356.5,31.5 C 1375.17,31.5 1393.83,31.5 1412.5,31.5C 1412.5,170.5 1412.5,309.5 1412.5,448.5C 1393.83,448.5 1375.17,448.5 1356.5,448.5C 1356.5,309.5 1356.5,170.5 1356.5,31.5 Z"/></g>
<g><path style="opacity:0.992" fill="#fefffe" d="M 1773.5,31.5 C 1791.83,31.5 1810.17,31.5 1828.5,31.5C 1828.33,84.1677 1828.5,136.834 1829,189.5C 1849.34,166.744 1874.84,153.577 1905.5,150C 1951.61,144.051 1990.45,157.884 2022,191.5C 2038.16,211.619 2047.49,234.619 2050,260.5C 2050.5,323.166 2050.67,385.832 2050.5,448.5C 2032.17,448.5 2013.83,448.5 1995.5,448.5C 1995.67,391.832 1995.5,335.166 1995,278.5C 1992.69,237.532 1971.86,211.365 1932.5,200C 1895.27,192.627 1865.1,203.794 1842,233.5C 1833.64,246.586 1829.31,260.92 1829,276.5C 1828.5,333.832 1828.33,391.166 1828.5,448.5C 1810.17,448.5 1791.83,448.5 1773.5,448.5C 1773.5,309.5 1773.5,170.5 1773.5,31.5 Z"/></g>
<g><path style="opacity:0.98" fill="#fefffe" d="M 528.5,141.5 C 558.354,139.646 587.021,144.479 614.5,156C 649.801,175.055 668.635,204.888 671,245.5C 671.5,313.166 671.667,380.833 671.5,448.5C 653.167,448.5 634.833,448.5 616.5,448.5C 616.667,437.162 616.5,425.828 616,414.5C 595.81,436.676 570.644,448.843 540.5,451C 507.553,455.342 476.553,449.675 447.5,434C 410.819,408.295 398.985,373.795 412,330.5C 421.141,308.026 436.974,292.192 459.5,283C 474.003,277.499 489.003,274.166 504.5,273C 540.818,271.641 577.151,271.141 613.5,271.5C 616.528,245.752 608.528,224.252 589.5,207C 572.928,196.481 554.762,191.648 535,192.5C 499.748,192.805 468.248,203.638 440.5,225C 439.668,225.688 439.002,225.521 438.5,224.5C 431,210.833 423.5,197.167 416,183.5C 415.289,181.633 415.789,180.133 417.5,179C 437.875,163.865 460.542,153.531 485.5,148C 499.823,144.766 514.157,142.6 528.5,141.5 Z M 524.5,314.5 C 554.167,314.5 583.833,314.5 613.5,314.5C 620.259,363.253 599.592,393.086 551.5,404C 533.676,407.634 516.01,406.967 498.5,402C 469.885,391.604 459.719,371.77 468,342.5C 473.481,330.352 482.648,322.519 495.5,319C 505.204,316.782 514.871,315.282 524.5,314.5 Z"/></g>
<g><path style="opacity:0.979" fill="#fefffe" d="M 1154.5,141.5 C 1181.63,140.067 1207.97,143.9 1233.5,153C 1273.68,171.47 1294.84,202.97 1297,247.5C 1297.5,314.499 1297.67,381.499 1297.5,448.5C 1279.17,448.5 1260.83,448.5 1242.5,448.5C 1242.67,436.829 1242.5,425.162 1242,413.5C 1230.8,427.359 1216.8,437.359 1200,443.5C 1176.05,451.065 1151.55,453.565 1126.5,451C 1092.3,448.491 1065.13,433.658 1045,406.5C 1027.46,373.357 1028.79,341.023 1049,309.5C 1064.98,291.752 1084.82,280.586 1108.5,276C 1115.45,274.674 1122.45,273.674 1129.5,273C 1166.15,271.648 1202.82,271.148 1239.5,271.5C 1240.35,218.518 1214.19,192.185 1161,192.5C 1125.75,192.804 1094.25,203.638 1066.5,225C 1065.67,225.688 1065,225.521 1064.5,224.5C 1056.7,210.205 1048.7,196.039 1040.5,182C 1062.5,164.173 1087.5,152.506 1115.5,147C 1128.55,144.413 1141.55,142.58 1154.5,141.5 Z M 1150.5,314.5 C 1180.17,314.5 1209.83,314.5 1239.5,314.5C 1246.58,357.219 1229.91,386.052 1189.5,401C 1167.92,407.817 1146.26,408.15 1124.5,402C 1096.85,392.195 1086.35,373.028 1093,344.5C 1099.04,329.794 1109.87,320.96 1125.5,318C 1133.92,316.361 1142.25,315.195 1150.5,314.5 Z"/></g>
<g><path style="opacity:0.979" fill="#fefffe" d="M 1570.5,141.5 C 1597.96,139.971 1624.63,143.804 1650.5,153C 1691.16,172.051 1712.33,204.217 1714,249.5C 1714.5,315.832 1714.67,382.166 1714.5,448.5C 1696.17,448.5 1677.83,448.5 1659.5,448.5C 1659.67,436.829 1659.5,425.162 1659,413.5C 1642.47,432.688 1621.64,444.521 1596.5,449C 1574.17,452.333 1551.83,452.333 1529.5,449C 1498.65,443.688 1475.15,427.855 1459,401.5C 1445.38,371.471 1446.71,342.137 1463,313.5C 1472.07,301.1 1483.57,291.6 1497.5,285C 1513.17,278.334 1529.5,274.334 1546.5,273C 1583.15,271.648 1619.82,271.148 1656.5,271.5C 1657.29,218.289 1630.96,191.956 1577.5,192.5C 1542.4,192.92 1511.07,203.754 1483.5,225C 1482.55,225.617 1481.72,225.451 1481,224.5C 1473.29,210.253 1465.46,196.086 1457.5,182C 1479.5,164.173 1504.5,152.506 1532.5,147C 1545.22,144.496 1557.89,142.663 1570.5,141.5 Z M 1567.5,314.5 C 1597.17,314.5 1626.83,314.5 1656.5,314.5C 1663.91,354.861 1648.91,383.028 1611.5,399C 1589.56,407.02 1567.23,408.353 1544.5,403C 1509.39,390.98 1499.55,368.147 1515,334.5C 1523.21,324.641 1533.71,318.808 1546.5,317C 1553.65,316.163 1560.65,315.33 1567.5,314.5 Z"/></g>
</svg>
