<?xml version="1.0" encoding="UTF-8"?>
<!DOCTYPE svg PUBLIC "-//W3C//DTD SVG 1.1//EN" "http://www.w3.org/Graphics/SVG/1.1/DTD/svg11.dtd">
<svg xmlns="http://www.w3.org/2000/svg" version="1.1" width="1000px" height="1000px" style="shape-rendering:geometricPrecision; text-rendering:geometricPrecision; image-rendering:optimizeQuality; fill-rule:evenodd; clip-rule:evenodd" xmlns:xlink="http://www.w3.org/1999/xlink">
<g><path style="opacity:0.993" fill="#fefefe" d="M 999.5,127.5 C 999.5,300.5 999.5,473.5 999.5,646.5C 978.884,724.583 928.051,766.583 847,772.5C 805.873,769.135 769.373,754.635 737.5,729C 716.833,708.842 702.999,684.675 696,656.5C 693.009,641.557 690.343,626.557 688,611.5C 679.996,572.618 656.496,549.784 617.5,543C 575.551,545.279 550.717,567.112 543,608.5C 542.667,689.5 542.333,770.5 542,851.5C 536.929,875.571 522.096,887.404 497.5,887C 479.999,884.506 468.166,875.006 462,858.5C 461.435,837.892 455.768,818.892 445,801.5C 420.935,773.774 391.435,765.94 356.5,778C 350.166,781.165 344.166,784.831 338.5,789C 325.604,803.957 316.77,821.123 312,840.5C 305.987,871.872 295.987,901.872 282,930.5C 261.161,967.507 229.994,990.507 188.5,999.5C 168.167,999.5 147.833,999.5 127.5,999.5C 52.8034,981.296 10.6367,933.963 1,857.5C 0.333333,620.167 0.333333,382.833 1,145.5C 7.25392,84.612 37.7539,40.7787 92.5,14C 109.168,6.99956 126.501,2.66623 144.5,1C 382.167,0.333333 619.833,0.333333 857.5,1C 933.963,10.6367 981.296,52.8034 999.5,127.5 Z M 146.5,82.5 C 257.501,82.3333 368.501,82.5 479.5,83C 470.257,100.397 464.424,118.897 462,138.5C 460.726,175.476 460.059,212.476 460,249.5C 409.79,224.098 359.624,224.265 309.5,250C 282.347,265.82 262.18,287.986 249,316.5C 237.459,341.792 229.125,368.125 224,395.5C 219.484,414.763 210.984,431.93 198.5,447C 177.803,461.361 155.469,464.361 131.5,456C 103.482,445.317 87.3155,425.151 83,395.5C 82.3333,312.833 82.3333,230.167 83,147.5C 89.4316,111.215 110.598,89.5483 146.5,82.5 Z M 82.5,850.5 C 82.1672,741.332 82.5005,632.332 83.5,523.5C 128.053,545.898 173.386,547.731 219.5,529C 246.446,516.72 266.946,497.553 281,471.5C 289.426,455.89 296.093,439.557 301,422.5C 305.287,404.73 309.954,387.064 315,369.5C 331.677,319.91 365.177,302.743 415.5,318C 439.452,329.06 453.952,347.56 459,373.5C 458.596,387.221 461.929,399.888 469,411.5C 487.329,430.168 507.162,432.001 528.5,417C 536.654,408.858 541.154,399.024 542,387.5C 542.333,307.167 542.667,226.833 543,146.5C 549.861,109.306 572.028,88.1391 609.5,83C 648.673,84.5139 674.173,104.014 686,141.5C 689.441,159.143 692.774,176.809 696,194.5C 708.183,244.685 738.35,279.185 786.5,298C 805.901,305.314 825.901,310.147 846.5,312.5C 872.588,311.521 897.088,304.854 920,292.5C 920.667,402.5 920.667,512.5 920,622.5C 913.755,662.91 890.255,685.577 849.5,690.5C 828.957,687.935 810.29,680.768 793.5,669C 784.055,659.278 777.888,647.778 775,634.5C 772.006,609.194 766.34,584.528 758,560.5C 729.988,499.546 682.321,466.213 615,460.5C 550.56,464.022 503.894,494.355 475,551.5C 467.198,569.374 462.531,588.041 461,607.5C 460.667,641.5 460.333,675.5 460,709.5C 408.955,683.771 358.122,684.271 307.5,711C 279.848,727.652 259.681,750.819 247,780.5C 236.528,805.717 228.528,831.717 223,858.5C 218.809,873.542 212.476,887.542 204,900.5C 191.464,913.852 175.964,920.519 157.5,920.5C 113.8,917.132 88.8001,893.798 82.5,850.5 Z M 850.5,82.5 C 893.333,88.6679 916.667,113.335 920.5,156.5C 916.582,200.085 892.916,224.751 849.5,230.5C 829.911,228.249 811.911,221.749 795.5,211C 786.528,202.029 780.028,191.529 776,179.5C 772.797,160.075 769.13,140.742 765,121.5C 761.2,108.239 756.033,95.5727 749.5,83.5C 782.996,82.5017 816.663,82.1684 850.5,82.5 Z"/></g>
<g><path style="opacity:0.255" fill="#bcd673" d="M 850.5,82.5 C 816.663,82.1684 782.996,82.5017 749.5,83.5C 748.957,83.44 748.624,83.1067 748.5,82.5C 782.664,81.1699 816.664,81.1699 850.5,82.5 Z"/></g>
<g><path style="opacity:0.243" fill="#f99f78" d="M 83.5,523.5 C 82.5005,632.332 82.1672,741.332 82.5,850.5C 81.1677,741.333 81.1677,631.999 82.5,522.5C 83.1067,522.624 83.44,522.957 83.5,523.5 Z"/></g>
</svg>
